# xmcd
#
# Track frame offsets: 
#        150
#        18714
#        35195
#        53753
#        69842
#        90134
#        105304
#        125149
#        149565
#        170783
#        191518
#        211193
#
# Disc length: 3052 seconds
#
# Revision: 0
# Processed by: cddbd v1.5.2PL0 Copyright (c) Steve Scherf et al.
# Submitted via: ExactAudioCopy v0.95b4
#
DISCID=a90bea0c
DTITLE=Conya Doss - Love Rain Down
DYEAR=2006
DGENRE=R&B
TTITLE0=Tell My Why
TTITLE1=Find A Wa
TTITLE2=Those Wur The Dayz
TTITLE3=Call Me
TTITLE4=Only Be Me
TTITLE5=Love Rain Down
TTITLE6=Let Ya Know
TTITLE7=Sign
TTITLE8=Beautiful Thing
TTITLE9=One
TTITLE10=Never Mind
TTITLE11=Why Did You
EXTD=
EXTT0=
EXTT1=
EXTT2=
EXTT3=
EXTT4=
EXTT5=
EXTT6=
EXTT7=
EXTT8=
EXTT9=
EXTT10=
EXTT11=
PLAYORDER=
